<svg xmlns="http://www.w3.org/2000/svg" viewBox="0 0 32 32">
  <!-- Background Circle with gradient -->
  <defs>
    <linearGradient id="bgGradient" x1="0%" y1="0%" x2="100%" y2="100%">
      <stop offset="0%" style="stop-color:#1a1a1a"/>
      <stop offset="100%" style="stop-color:#654777"/>
    </linearGradient>
  </defs>
  
  <circle cx="16" cy="16" r="16" fill="url(#bgGradient)"/>
  
  <!-- Stylized Book -->
  <path d="M8 10 V22 C8 23 9 24 10 24 H22 C23 24 24 23 24 22 V10 C24 9 23 8 22 8 H10 C9 8 8 9 8 10" fill="#ebd3f8"/>
  
  <!-- Book Pages -->
  <path d="M10 10 H22 V22 H10 V10" fill="#654777"/>
  
  <!-- Heart Shape -->
  <path d="M16 19 L13 16 C12 15 12 13.5 13 12.5 C14 11.5 15.5 11.5 16 12.5 C16.5 11.5 18 11.5 19 12.5 C20 13.5 20 15 19 16 L16 19" fill="#e99898"/>
</svg>
